<svg width="250" height="42" viewBox="0 0 233 42" fill="none" xmlns="http://www.w3.org/2000/svg">
<path d="M1.44 16.096C2.176 14.72 3.04 13.376 4.288 12.416C4.64 12.16 5.056 11.904 5.504 11.776C5.92 11.616 6.4 11.584 6.88 11.616C7.264 11.68 7.648 11.808 8 11.968C8.384 12.096 8.736 12.288 9.088 12.416C9.472 12.576 9.856 12.672 10.24 12.704C10.656 12.736 11.04 12.672 11.424 12.544C11.936 12.352 12.384 12.032 12.8 11.68C12.928 11.616 13.024 11.52 13.152 11.424L13.888 12.192C11.68 13.632 9.952 15.744 8.992 18.176C8.224 20.064 7.936 22.08 8.096 24.096C8.192 25.344 8.48 26.592 8.96 27.744L10.72 27.008V21.952V19.168C10.72 18.272 10.784 17.344 11.136 16.512C11.52 15.68 12.096 14.976 12.768 14.336C13.856 13.312 15.072 12.448 16.288 11.552H16.96V14.464L21.344 11.648L24.096 13.952L25.376 12.928L25.952 13.6L24.544 14.752V31.584L26.112 32.896L27.104 32.064L27.552 32.512L23.328 36.032L19.712 32.992L14.784 36.384C12.096 36.352 9.44 35.328 7.456 33.536C5.44 31.776 4.096 29.248 3.776 26.592C3.456 24.256 3.904 21.792 5.056 19.712C6.144 17.728 7.872 16.096 9.856 15.104C9.216 15.36 8.48 15.424 7.776 15.296C7.104 15.2 6.496 14.944 5.856 14.752C5.184 14.56 4.512 14.4 3.872 14.56C3.456 14.656 3.104 14.816 2.816 15.104C2.496 15.36 2.272 15.712 2.176 16.096H1.44ZM16.032 12.768C15.68 13.088 15.392 13.504 15.2 13.952C14.88 14.72 14.848 15.584 14.848 16.384V17.792V26.176L9.344 28.512C10.048 29.856 11.104 31.04 12.416 31.84C13.504 32.544 14.752 32.928 16.032 33.024C16.032 26.272 16.032 19.52 16.032 12.768ZM16.96 22.368L20.096 20.768V16.48L18.336 14.528L16.96 15.392C16.96 17.728 16.96 20.032 16.96 22.368ZM16.96 23.392V25.728L20.096 24.128V21.792L16.96 23.392ZM16.96 26.752C16.96 28.832 16.96 30.944 16.96 33.024C17.12 33.024 17.28 32.992 17.44 32.96L20.096 31.232V25.152L16.96 26.752ZM33.246 23.616V32.288C33.374 32.32 33.47 32.384 33.566 32.416C34.654 32.832 35.71 33.312 36.766 33.792V24.288L34.654 22.56L33.246 23.616ZM29.534 31.84V23.84C29.566 23.648 29.534 23.424 29.438 23.2C29.342 23.008 29.214 22.848 29.022 22.72C28.83 22.56 28.574 22.464 28.286 22.464C28.03 22.464 27.774 22.528 27.55 22.688L27.23 22.176L31.102 19.584C31.614 19.904 32.062 20.32 32.446 20.768C32.766 21.12 33.022 21.536 33.246 21.984V22.56L37.278 19.552L40.382 22.272L41.374 21.472L41.918 22.176L40.734 23.136V32.064C39.742 32.608 38.782 33.216 37.854 33.856C37.022 34.464 36.19 35.104 35.422 35.744C34.718 35.36 34.014 34.976 33.246 34.656V36.128C33.246 36.384 33.246 36.608 33.278 36.864C33.342 37.088 33.406 37.344 33.534 37.536C33.63 37.76 33.79 37.92 33.982 38.08C34.206 38.24 34.462 38.336 34.718 38.368V38.816L30.142 41.568H29.534V33.504C28.99 33.376 28.446 33.312 27.902 33.216L29.534 31.84ZM48.013 19.136C47.181 18.784 46.477 18.08 46.125 17.216C45.773 16.352 45.741 15.36 46.061 14.496C46.317 13.792 46.765 13.152 47.341 12.672C47.917 12.192 48.621 11.84 49.357 11.648C50.157 11.456 50.989 11.424 51.821 11.52C52.653 11.648 53.453 11.872 54.253 12.128C55.405 12.512 56.589 12.96 57.805 13.216C58.733 13.44 59.661 13.728 60.621 13.76C60.941 13.76 61.293 13.728 61.581 13.6C61.709 13.504 61.837 13.408 61.933 13.28C62.029 13.12 62.093 12.992 62.125 12.8C62.125 12.64 62.093 12.448 62.029 12.32C61.933 12.16 61.805 12 61.677 11.904C61.389 11.68 61.069 11.584 60.717 11.488C60.365 11.424 60.013 11.36 59.661 11.328V10.72C60.077 10.688 60.493 10.688 60.877 10.72C61.613 10.816 62.381 11.008 63.021 11.36C63.693 11.712 64.269 12.256 64.621 12.928C65.005 13.632 65.101 14.496 64.909 15.296C64.685 16.096 64.173 16.768 63.469 17.248C62.893 17.632 62.189 17.888 61.453 17.952C61.197 17.984 60.909 18.016 60.621 18.016V21.856L62.765 24L60.621 26.144V31.008C60.877 30.848 61.069 30.688 61.293 30.528C62.477 29.536 63.405 28.256 63.981 26.816H64.589C64.653 28.288 64.301 29.76 63.629 31.072C62.861 32.512 61.709 33.728 60.301 34.56C58.893 35.392 57.293 35.84 55.661 35.904C52.685 36 49.677 34.752 47.661 32.544C45.645 30.336 44.685 27.2 45.229 24.288C45.581 22.464 46.477 20.768 47.789 19.456C49.101 18.176 50.797 17.312 52.621 16.992L52.941 17.472C51.533 18.4 50.413 19.712 49.709 21.248L56.749 18.24V27.968L51.117 30.336C51.565 30.784 52.077 31.168 52.621 31.456C53.965 32.224 55.565 32.512 57.101 32.32C58.029 32.224 58.925 31.936 59.725 31.52V26.112L57.645 24L59.725 21.888V17.952C59.597 17.952 59.437 17.92 59.309 17.888C57.869 17.696 56.461 17.28 55.053 16.96C53.613 16.608 52.205 16.192 50.765 15.904C50.189 15.776 49.581 15.712 49.005 15.84C48.685 15.904 48.429 16.032 48.173 16.224C47.949 16.384 47.757 16.64 47.629 16.928C47.501 17.248 47.501 17.6 47.629 17.952C47.757 18.272 48.013 18.528 48.333 18.688L48.013 19.136ZM49.293 22.336C48.781 23.968 48.749 25.792 49.293 27.424C49.581 28.224 49.997 28.992 50.509 29.664L52.621 28.768V20.928L49.293 22.336ZM72.0525 31.104L75.7325 33.568V24.352L72.0525 21.92V31.104ZM66.8365 33.856L66.2925 33.152L67.9245 31.84C67.9245 29.088 67.9245 26.336 67.9245 23.584L75.1245 19.456L79.7325 22.976V31.712L72.6605 36.032C71.1565 34.944 69.6525 33.856 68.1805 32.768L66.8365 33.856ZM84.5543 31.456C84.9383 31.232 85.2903 30.944 85.5463 30.56C86.0583 29.92 86.3143 29.056 86.4103 28.224C86.5063 27.392 86.5063 26.56 86.5063 25.696C86.5063 25.664 86.5063 25.632 86.5063 25.632C86.2503 25.632 85.9943 25.632 85.7063 25.632C85.5143 25.632 85.3223 25.632 85.1302 25.664C84.9383 25.696 84.7463 25.76 84.5863 25.856C84.2343 26.048 84.0103 26.4 83.9143 26.784C83.8503 27.008 83.8503 27.232 83.8823 27.456H83.2743C82.8263 26.656 82.6663 25.696 82.8903 24.768C82.9863 24.288 83.2103 23.84 83.4983 23.456C83.8183 23.072 84.2023 22.752 84.6823 22.528C85.2263 22.272 85.8663 22.176 86.5063 22.08V21.248C86.5063 20.928 86.5063 20.576 86.5703 20.224C86.6343 19.872 86.7623 19.552 86.9543 19.264C87.3063 18.688 87.9143 18.272 88.4903 17.888L91.0183 16.224H86.5703C86.2503 16.224 85.9623 16.224 85.6743 16.128C85.4183 16.032 85.1623 15.84 84.9703 15.616C84.6823 15.328 84.5223 14.944 84.3943 14.528C84.2983 14.144 84.2663 13.728 84.2343 13.312C84.2343 12.48 84.3303 11.68 84.5543 10.88L85.2583 10.912C85.2903 11.136 85.3863 11.392 85.5463 11.584C85.7063 11.776 85.8983 11.968 86.1223 12.064C86.3463 12.192 86.6023 12.256 86.8263 12.288C87.0823 12.32 87.3383 12.32 87.5943 12.32H96.3303C97.6743 12.32 99.0183 12.416 100.266 12.928C101.514 13.44 102.57 14.336 103.338 15.392C104.682 17.28 105.258 19.616 105.386 21.92C105.514 24.16 105.226 26.4 104.618 28.512C104.298 29.696 103.85 30.816 103.306 31.904L95.3063 36.32C93.7703 35.232 91.9143 34.592 90.0263 34.528C87.5943 34.496 85.1623 35.392 83.3703 37.024H82.4743C83.8183 34.432 86.2503 32.416 89.0663 31.52C89.6423 30.944 90.1863 30.368 90.6983 29.76C91.0503 29.312 91.3703 28.864 91.5303 28.352C91.7223 27.84 91.7543 27.296 91.7543 26.688V23.424V20.928C91.7543 19.968 91.7863 18.944 92.1703 17.952C92.3943 17.312 92.7463 16.736 93.1943 16.224H92.1703C91.6583 16.672 91.1783 17.184 90.9223 17.792C90.6663 18.4 90.6343 19.104 90.6343 19.776V22.272V25.536C90.6343 26.176 90.6023 26.816 90.4423 27.424C90.2823 28.032 90.0263 28.608 89.6743 29.088C88.5543 30.72 86.7303 31.744 84.8423 32.224L84.5543 31.456ZM95.2423 31.392C96.7143 31.776 98.0903 32.448 99.2743 33.344C99.9463 31.712 100.426 29.984 100.714 28.224C100.938 26.912 101.066 25.6 101.066 24.256L95.2423 27.232V31.392ZM95.2423 16.256C95.2423 18.4 95.2423 20.544 95.2423 22.72L100.522 20.032C100.266 19.232 99.8823 18.496 99.3383 17.856C98.7943 17.248 98.1223 16.8 97.3863 16.544C96.7143 16.288 95.9783 16.256 95.2423 16.256ZM94.3463 31.2C94.3463 26.272 94.3463 21.344 94.3463 16.416C93.7383 16.896 93.2583 17.536 93.0023 18.272C92.7143 19.072 92.6503 20 92.6503 20.96V23.456V26.72C92.6503 27.328 92.6183 28 92.3943 28.64C92.1703 29.28 91.7863 29.856 91.3703 30.336C91.1463 30.624 90.9223 30.88 90.6663 31.168C91.8823 30.976 93.1303 31.008 94.3463 31.2ZM95.2423 23.744V26.208L101.066 23.264C101.034 23.136 101.034 23.008 101.034 22.88C101.002 22.24 100.906 21.6 100.778 20.96L95.2423 23.744ZM121.39 32.48L121.55 33.12L117.102 36.16L114.638 33.728L111.278 36.16C109.966 36 108.686 35.36 107.854 34.336C107.278 33.632 106.926 32.704 106.958 31.776C106.99 31.168 107.214 30.592 107.534 30.048C107.822 29.536 108.238 29.088 108.686 28.704C109.326 28.128 110.03 27.68 110.798 27.264C110.638 27.2 110.478 27.136 110.318 27.072C109.582 26.72 108.91 26.24 108.462 25.568C108.238 25.216 108.078 24.8 108.046 24.352C108.014 23.968 108.11 23.584 108.27 23.2C108.43 22.848 108.686 22.56 108.974 22.272C109.294 22.016 109.678 21.792 110.062 21.6L113.582 19.776L118.286 22.816L119.598 21.76L120.142 22.464L118.478 23.808V31.872L120.014 33.408L121.39 32.48ZM114.51 27.52C114.51 26.528 114.51 25.504 114.51 24.512L110.51 22.048C110.254 22.176 110.03 22.272 109.838 22.432C109.582 22.624 109.358 22.88 109.198 23.136C109.038 23.424 108.974 23.744 108.974 24.064C108.974 24.512 109.166 24.928 109.454 25.248C109.838 25.76 110.414 26.112 110.99 26.368C111.566 26.656 112.174 26.848 112.782 27.04C113.326 27.232 113.902 27.392 114.51 27.52ZM114.51 28.448C113.87 28.256 113.23 28.064 112.59 27.872C112.174 27.744 111.758 27.616 111.342 27.488C111.118 27.904 110.926 28.352 110.862 28.832C110.702 29.792 110.926 30.816 111.374 31.68C111.598 32.096 111.854 32.448 112.206 32.768C112.558 33.056 112.974 33.312 113.422 33.376C113.774 33.44 114.158 33.44 114.51 33.312C114.51 31.68 114.51 30.08 114.51 28.448ZM128.484 32.192L129.988 33.696L131.076 33.12L131.524 33.728L127.108 36.032L123.748 33.12L122.532 33.888L122.052 33.248L124.196 31.872V24.064C124.196 23.904 124.196 23.744 124.164 23.584C124.132 23.424 124.068 23.296 123.972 23.136C123.844 22.944 123.62 22.784 123.396 22.688C123.172 22.56 122.916 22.528 122.66 22.528V22.08L127.876 16.832H128.484V20.512H132.292L130.788 22.272H128.484V32.192ZM132.458 33.952L131.882 33.248L133.418 32.032V23.584L141.066 19.616L144.298 24.512V24.672L137.386 28.96V30.336L141.226 32.96L144.746 30.208L145.226 30.976L138.634 36.32L133.866 32.8L132.458 33.952ZM137.386 28.192L140.778 26.048L137.994 22.048L137.386 22.4V28.192Z" fill="black"/>
</svg>
